
      <svg data-logo="logo" xmlns="http://www.w3.org/2000/svg" viewBox="0 0 205 36">
        <g id="logogram" transform="translate(0, 18) rotate(0) "></g>
        <g id="logotype" transform="translate(0, 1)"><path fill="#1A5CDF" d="M20.25 29.68L2.84 21.95L2.84 17.73L20.25 9.97L20.25 14.91L8.25 19.80L8.41 19.52L8.41 20.14L8.25 19.90L20.25 24.77L20.25 29.68ZM29.00 30.38L29.00 30.38Q27.19 30.38 25.74 29.74Q24.30 29.09 23.47 27.82Q22.64 26.55 22.64 24.65L22.64 24.65Q22.64 23.06 23.23 21.98Q23.82 20.91 24.84 20.26Q25.85 19.61 27.15 19.27Q28.44 18.93 29.85 18.79L29.85 18.79Q31.51 18.62 32.53 18.47Q33.55 18.33 34.02 18.01Q34.49 17.70 34.49 17.08L34.49 17.08L34.49 16.99Q34.49 16.17 34.14 15.61Q33.80 15.05 33.14 14.75Q32.47 14.45 31.49 14.45L31.49 14.45Q30.50 14.45 29.77 14.75Q29.03 15.05 28.57 15.54Q28.11 16.04 27.89 16.65L27.89 16.65L23.19 15.87Q23.68 14.21 24.83 13.05Q25.97 11.88 27.67 11.27Q29.38 10.65 31.49 10.65L31.49 10.65Q33.05 10.65 34.50 11.02Q35.95 11.39 37.11 12.16Q38.26 12.93 38.94 14.16Q39.61 15.39 39.61 17.13L39.61 17.13L39.61 30L34.76 30L34.76 27.35L34.59 27.35Q34.13 28.24 33.36 28.91Q32.59 29.59 31.50 29.98Q30.42 30.38 29.00 30.38ZM30.45 26.77L30.45 26.77Q31.67 26.77 32.58 26.29Q33.49 25.81 34.01 24.99Q34.52 24.17 34.52 23.16L34.52 23.16L34.52 21.10Q34.30 21.27 33.84 21.40Q33.37 21.54 32.81 21.64Q32.25 21.75 31.70 21.83Q31.15 21.92 30.73 21.97L30.73 21.97Q29.79 22.10 29.07 22.41Q28.35 22.72 27.96 23.22Q27.56 23.73 27.56 24.51L27.56 24.51Q27.56 25.25 27.94 25.75Q28.32 26.26 28.96 26.51Q29.60 26.77 30.45 26.77ZM46.84 18.94L46.84 18.94L46.84 30L41.71 30L41.71 10.89L46.55 10.89L46.63 15.66L46.33 15.66Q47.08 13.27 48.61 11.96Q50.14 10.65 52.56 10.65L52.56 10.65Q54.55 10.65 56.02 11.52Q57.49 12.38 58.31 14.00Q59.13 15.61 59.13 17.85L59.13 17.85L59.13 30L54.00 30L54.00 18.74Q54.00 16.96 53.09 15.95Q52.17 14.94 50.55 14.94L50.55 14.94Q49.47 14.94 48.63 15.41Q47.78 15.88 47.31 16.77Q46.84 17.66 46.84 18.94ZM69.77 30.38L69.77 30.38Q66.90 30.38 64.80 29.14Q62.70 27.90 61.56 25.68Q60.42 23.47 60.42 20.53L60.42 20.53Q60.42 17.56 61.56 15.35Q62.70 13.13 64.80 11.89Q66.90 10.65 69.77 10.65L69.77 10.65Q72.66 10.65 74.75 11.89Q76.85 13.13 77.98 15.35Q79.12 17.56 79.12 20.53L79.12 20.53Q79.12 23.47 77.98 25.68Q76.85 27.90 74.75 29.14Q72.66 30.38 69.77 30.38ZM69.77 26.34L69.77 26.34Q71.14 26.34 72.06 25.58Q72.98 24.82 73.45 23.50Q73.91 22.17 73.91 20.52L73.91 20.52Q73.91 18.82 73.45 17.51Q72.98 16.19 72.06 15.44Q71.14 14.69 69.77 14.69L69.77 14.69Q68.40 14.69 67.49 15.44Q66.58 16.19 66.11 17.51Q65.65 18.82 65.65 20.52L65.65 20.52Q65.65 22.17 66.11 23.50Q66.58 24.82 67.49 25.58Q68.40 26.34 69.77 26.34ZM89.61 30L84.40 30L78.76 10.89L84.14 10.89L85.80 17.95Q86.23 19.85 86.72 22.08Q87.22 24.31 87.63 27.01L87.63 27.01L87.05 27.01Q87.49 24.38 88.02 22.14Q88.55 19.90 89.01 17.95L89.01 17.95L90.76 10.89L95.47 10.89L97.16 17.95Q97.61 19.88 98.14 22.11Q98.67 24.34 99.13 27.01L99.13 27.01L98.55 27.01Q98.96 24.36 99.43 22.13Q99.90 19.90 100.34 17.95L100.34 17.95L102.00 10.89L107.45 10.89L101.78 30L96.57 30L94.45 22.63Q94.14 21.52 93.83 20.18Q93.52 18.84 93.23 17.45Q92.94 16.05 92.64 14.84L92.64 14.84L93.54 14.84Q93.25 16.05 92.95 17.45Q92.65 18.84 92.35 20.19Q92.04 21.54 91.73 22.63L91.73 22.63L89.61 30ZM113.23 30.38L113.23 30.38Q111.42 30.38 109.97 29.74Q108.53 29.09 107.70 27.82Q106.87 26.55 106.87 24.65L106.87 24.65Q106.87 23.06 107.46 21.98Q108.05 20.91 109.07 20.26Q110.08 19.61 111.37 19.27Q112.66 18.93 114.08 18.79L114.08 18.79Q115.74 18.62 116.76 18.47Q117.77 18.33 118.24 18.01Q118.71 17.70 118.71 17.08L118.71 17.08L118.71 16.99Q118.71 16.17 118.37 15.61Q118.03 15.05 117.36 14.75Q116.70 14.45 115.72 14.45L115.72 14.45Q114.73 14.45 114.00 14.75Q113.26 15.05 112.80 15.54Q112.34 16.04 112.12 16.65L112.12 16.65L107.42 15.87Q107.91 14.21 109.06 13.05Q110.20 11.88 111.90 11.27Q113.60 10.65 115.72 10.65L115.72 10.65Q117.28 10.65 118.73 11.02Q120.18 11.39 121.34 12.16Q122.49 12.93 123.16 14.16Q123.84 15.39 123.84 17.13L123.84 17.13L123.84 30L118.99 30L118.99 27.35L118.82 27.35Q118.35 28.24 117.58 28.91Q116.82 29.59 115.73 29.98Q114.65 30.38 113.23 30.38ZM114.68 26.77L114.68 26.77Q115.89 26.77 116.81 26.29Q117.72 25.81 118.23 24.99Q118.75 24.17 118.75 23.16L118.75 23.16L118.75 21.10Q118.52 21.27 118.06 21.40Q117.60 21.54 117.04 21.64Q116.47 21.75 115.93 21.83Q115.38 21.92 114.95 21.97L114.95 21.97Q114.01 22.10 113.30 22.41Q112.58 22.72 112.18 23.22Q111.79 23.73 111.79 24.51L111.79 24.51Q111.79 25.25 112.17 25.75Q112.54 26.26 113.18 26.51Q113.83 26.77 114.68 26.77ZM131.07 30L125.94 30L125.94 10.89L130.90 10.89L130.90 14.23L131.10 14.23Q131.63 12.45 132.87 11.54Q134.11 10.64 135.72 10.64L135.72 10.64Q136.11 10.64 136.56 10.68Q137.01 10.72 137.37 10.81L137.37 10.81L137.37 15.39Q137.03 15.27 136.38 15.20Q135.73 15.13 135.15 15.13L135.15 15.13Q133.99 15.13 133.05 15.64Q132.11 16.14 131.59 17.04Q131.07 17.93 131.07 19.13L131.07 19.13L131.07 30ZM153.73 30L137.78 30L137.78 26.89L147.20 15.17L147.20 15.03L138.07 15.03L138.07 10.89L153.40 10.89L153.40 14.29L144.51 25.73L144.51 25.86L153.73 25.86L153.73 30ZM171.50 30L155.55 30L155.55 26.89L164.97 15.17L164.97 15.03L155.84 15.03L155.84 10.89L171.17 10.89L171.17 14.29L162.29 25.73L162.29 25.86L171.50 25.86L171.50 30ZM179.95 3.34L184.40 3.34L176.19 33.83L171.75 33.83L179.95 3.34ZM203.50 17.73L203.50 21.95L186.09 29.68L186.09 24.77L198.10 19.90L197.95 20.14L197.95 19.52L198.10 19.80L186.09 14.91L186.09 9.97L203.50 17.73Z"/></g>
        
      </svg>
    