<svg viewBox="0 0 151 22" xmlns="http://www.w3.org/2000/svg" data-logo="logo">
        <g transform="translate(0, 11) rotate(0)" id="logogram"></g>
        <g transform="translate(0, 1)" id="logotype"><path d="M7.52 20.38L7.52 20.38Q5.71 20.38 4.26 19.74Q2.82 19.09 1.99 17.82Q1.16 16.55 1.16 14.65L1.16 14.65Q1.16 13.06 1.75 11.98Q2.34 10.91 3.36 10.26Q4.38 9.61 5.67 9.27Q6.96 8.93 8.37 8.79L8.37 8.79Q10.03 8.62 11.05 8.47Q12.07 8.33 12.54 8.01Q13.01 7.70 13.01 7.08L13.01 7.08L13.01 6.99Q13.01 6.17 12.66 5.61Q12.32 5.05 11.66 4.75Q10.99 4.45 10.01 4.45L10.01 4.45Q9.02 4.45 8.29 4.75Q7.55 5.05 7.09 5.54Q6.63 6.04 6.41 6.65L6.41 6.65L1.71 5.87Q2.20 4.21 3.35 3.05Q4.49 1.88 6.20 1.27Q7.90 0.65 10.01 0.65L10.01 0.65Q11.57 0.65 13.02 1.02Q14.48 1.39 15.63 2.16Q16.78 2.93 17.46 4.16Q18.13 5.39 18.13 7.13L18.13 7.13L18.13 20L13.28 20L13.28 17.35L13.11 17.35Q12.65 18.24 11.88 18.91Q11.11 19.59 10.02 19.98Q8.94 20.38 7.52 20.38ZM8.97 16.77L8.97 16.77Q10.19 16.77 11.10 16.29Q12.01 15.81 12.53 14.99Q13.04 14.17 13.04 13.16L13.04 13.16L13.04 11.10Q12.82 11.27 12.36 11.40Q11.89 11.54 11.33 11.64Q10.77 11.75 10.22 11.83Q9.67 11.92 9.25 11.97L9.25 11.97Q8.31 12.10 7.59 12.41Q6.87 12.72 6.48 13.22Q6.08 13.73 6.08 14.51L6.08 14.51Q6.08 15.25 6.46 15.75Q6.84 16.26 7.48 16.51Q8.12 16.77 8.97 16.77ZM25.36 8.94L25.36 8.94L25.36 20L20.23 20L20.23 0.89L25.07 0.89L25.15 5.66L24.85 5.66Q25.60 3.27 27.13 1.96Q28.66 0.65 31.08 0.65L31.08 0.65Q33.07 0.65 34.54 1.52Q36.01 2.38 36.83 4.00Q37.65 5.61 37.65 7.85L37.65 7.85L37.65 20L32.52 20L32.52 8.74Q32.52 6.96 31.61 5.95Q30.69 4.94 29.07 4.94L29.07 4.94Q27.99 4.94 27.15 5.41Q26.30 5.88 25.83 6.77Q25.36 7.66 25.36 8.94ZM48.29 20.38L48.29 20.38Q45.42 20.38 43.32 19.14Q41.22 17.90 40.08 15.68Q38.94 13.47 38.94 10.53L38.94 10.53Q38.94 7.56 40.08 5.35Q41.22 3.13 43.32 1.89Q45.42 0.65 48.29 0.65L48.29 0.65Q51.18 0.65 53.27 1.89Q55.37 3.13 56.50 5.35Q57.64 7.56 57.64 10.53L57.64 10.53Q57.64 13.47 56.50 15.68Q55.37 17.90 53.27 19.14Q51.18 20.38 48.29 20.38ZM48.29 16.34L48.29 16.34Q49.66 16.34 50.58 15.58Q51.50 14.82 51.97 13.50Q52.43 12.17 52.43 10.52L52.43 10.52Q52.43 8.82 51.97 7.51Q51.50 6.19 50.58 5.44Q49.66 4.69 48.29 4.69L48.29 4.69Q46.92 4.69 46.01 5.44Q45.10 6.19 44.63 7.51Q44.17 8.82 44.17 10.52L44.17 10.52Q44.17 12.17 44.63 13.50Q45.10 14.82 46.01 15.58Q46.92 16.34 48.29 16.34ZM68.13 20L62.92 20L57.28 0.89L62.66 0.89L64.32 7.95Q64.75 9.85 65.24 12.08Q65.74 14.31 66.15 17.01L66.15 17.01L65.57 17.01Q66.01 14.38 66.54 12.14Q67.07 9.90 67.53 7.95L67.53 7.95L69.28 0.89L73.99 0.89L75.68 7.95Q76.13 9.88 76.66 12.11Q77.19 14.34 77.65 17.01L77.65 17.01L77.07 17.01Q77.48 14.36 77.95 12.13Q78.42 9.90 78.86 7.95L78.86 7.95L80.52 0.89L85.97 0.89L80.30 20L75.09 20L72.97 12.63Q72.66 11.52 72.35 10.18Q72.04 8.84 71.75 7.45Q71.46 6.05 71.16 4.84L71.16 4.84L72.06 4.84Q71.77 6.05 71.47 7.45Q71.17 8.84 70.87 10.19Q70.56 11.54 70.25 12.63L70.25 12.63L68.13 20ZM91.75 20.38L91.75 20.38Q89.94 20.38 88.49 19.74Q87.05 19.09 86.22 17.82Q85.39 16.55 85.39 14.65L85.39 14.65Q85.39 13.06 85.98 11.98Q86.57 10.91 87.59 10.26Q88.60 9.61 89.89 9.27Q91.18 8.93 92.60 8.79L92.60 8.79Q94.26 8.62 95.28 8.47Q96.29 8.33 96.76 8.01Q97.23 7.70 97.23 7.08L97.23 7.08L97.23 6.99Q97.23 6.17 96.89 5.61Q96.55 5.05 95.88 4.75Q95.22 4.45 94.24 4.45L94.24 4.45Q93.25 4.45 92.52 4.75Q91.78 5.05 91.32 5.54Q90.86 6.04 90.64 6.65L90.64 6.65L85.94 5.87Q86.43 4.21 87.58 3.05Q88.72 1.88 90.42 1.27Q92.12 0.65 94.24 0.65L94.24 0.65Q95.80 0.65 97.25 1.02Q98.70 1.39 99.86 2.16Q101.01 2.93 101.68 4.16Q102.36 5.39 102.36 7.13L102.36 7.13L102.36 20L97.51 20L97.51 17.35L97.34 17.35Q96.87 18.24 96.11 18.91Q95.34 19.59 94.25 19.98Q93.17 20.38 91.75 20.38ZM93.20 16.77L93.20 16.77Q94.41 16.77 95.33 16.29Q96.24 15.81 96.75 14.99Q97.27 14.17 97.27 13.16L97.27 13.16L97.27 11.10Q97.05 11.27 96.58 11.40Q96.12 11.54 95.56 11.64Q94.99 11.75 94.45 11.83Q93.90 11.92 93.47 11.97L93.47 11.97Q92.53 12.10 91.82 12.41Q91.10 12.72 90.70 13.22Q90.31 13.73 90.31 14.51L90.31 14.51Q90.31 15.25 90.69 15.75Q91.06 16.26 91.70 16.51Q92.35 16.77 93.20 16.77ZM109.59 20L104.46 20L104.46 0.89L109.42 0.89L109.42 4.23L109.62 4.23Q110.15 2.45 111.39 1.54Q112.63 0.64 114.24 0.64L114.24 0.64Q114.63 0.64 115.08 0.68Q115.53 0.72 115.89 0.81L115.89 0.81L115.89 5.39Q115.55 5.27 114.90 5.20Q114.25 5.13 113.67 5.13L113.67 5.13Q112.51 5.13 111.57 5.64Q110.63 6.14 110.11 7.04Q109.59 7.93 109.59 9.13L109.59 9.13L109.59 20ZM132.25 20L116.30 20L116.30 16.89L125.72 5.17L125.72 5.03L116.59 5.03L116.59 0.89L131.92 0.89L131.92 4.29L123.03 15.73L123.03 15.86L132.25 15.86L132.25 20ZM150.02 20L134.07 20L134.07 16.89L143.49 5.17L143.49 5.03L134.36 5.03L134.36 0.89L149.69 0.89L149.69 4.29L140.81 15.73L140.81 15.86L150.02 15.86L150.02 20Z" fill="#1A5CDF"></path></g>
        
      </svg>