<svg viewBox="0 0 147 20" xmlns="http://www.w3.org/2000/svg" data-logo="logo">
        <g transform="translate(0, 10) rotate(0)" id="logogram" style="opacity: 1;"></g>
        <g transform="translate(0, 1)" id="logotype" style="opacity: 1;"><path d="M6.51 18.39L6.51 18.39Q3.78 18.39 2.40 17.00Q1.02 15.62 1.02 12.82L1.02 12.82Q1.02 10.86 1.72 9.76Q2.42 8.65 3.80 8.15Q5.18 7.64 7.18 7.53L7.18 7.53L11.45 7.15L11.45 6.10Q11.45 4.84 10.82 4.33Q10.19 3.82 8.96 3.82L8.96 3.82Q7.98 3.82 6.70 3.89Q5.43 3.96 4.18 4.07Q2.94 4.17 2.03 4.28L2.03 4.28L1.89 0.99Q2.80 0.78 4.08 0.55Q5.36 0.32 6.76 0.18Q8.16 0.04 9.35 0.04L9.35 0.04Q11.59 0.04 13.09 0.60Q14.60 1.16 15.37 2.44Q16.14 3.72 16.14 5.89L16.14 5.89L16.14 13.90Q16.21 14.39 16.66 14.66Q17.12 14.92 17.71 15.03L17.71 15.03L17.61 18.25Q17.05 18.25 16.50 18.26Q15.96 18.28 15.47 18.26Q14.98 18.25 14.60 18.18L14.60 18.18Q13.79 18.07 13.21 17.75Q12.64 17.44 12.29 17.09L12.29 17.09Q11.73 17.34 10.78 17.65Q9.84 17.96 8.73 18.18Q7.63 18.39 6.51 18.39ZM7.63 14.92L7.63 14.92Q8.29 14.92 9.03 14.78Q9.77 14.64 10.41 14.45Q11.06 14.25 11.45 14.08L11.45 14.08L11.45 10.05L7.88 10.37Q6.72 10.47 6.21 11.05Q5.71 11.63 5.71 12.68L5.71 12.68Q5.71 13.73 6.18 14.32Q6.65 14.92 7.63 14.92ZM24.89 18L20.23 18L20.23 0.43L24.89 0.43L24.89 1.55Q25.45 1.20 26.25 0.87Q27.06 0.53 27.95 0.29Q28.84 0.04 29.68 0.04L29.68 0.04Q31.50 0.04 32.71 0.52Q33.92 0.99 34.62 2.04Q35.32 3.09 35.63 4.79Q35.95 6.48 35.95 8.90L35.95 8.90L35.95 18L31.26 18L31.26 9.14Q31.26 7.32 31.05 6.22Q30.84 5.12 30.24 4.63Q29.65 4.14 28.49 4.14L28.49 4.14Q27.86 4.14 27.18 4.26Q26.50 4.38 25.88 4.59Q25.27 4.80 24.89 5.01L24.89 5.01L24.89 18ZM47.15 18.39L47.15 18.39Q44.17 18.39 42.37 17.41Q40.57 16.43 39.76 14.38Q38.96 12.33 38.96 9.07L38.96 9.07Q38.96 5.92 39.80 3.95Q40.64 1.97 42.46 1.01Q44.28 0.04 47.15 0.04L47.15 0.04Q50.05 0.04 51.85 1.01Q53.66 1.97 54.51 3.95Q55.37 5.92 55.37 9.07L55.37 9.07Q55.37 12.33 54.57 14.38Q53.76 16.43 51.96 17.41Q50.16 18.39 47.15 18.39ZM47.15 14.54L47.15 14.54Q48.62 14.54 49.35 13.99Q50.09 13.45 50.35 12.24Q50.61 11.04 50.61 9.07L50.61 9.07Q50.61 7.15 50.30 6.01Q49.98 4.87 49.25 4.38Q48.51 3.89 47.15 3.89L47.15 3.89Q45.82 3.89 45.06 4.38Q44.31 4.87 44.00 6.01Q43.68 7.15 43.68 9.07L43.68 9.07Q43.68 11.04 43.94 12.24Q44.21 13.45 44.94 13.99Q45.68 14.54 47.15 14.54ZM67.66 18L60.80 18L57.44 0.43L62.41 0.43L64.68 14.04L65.21 14.04L68.04 0.81L72.52 0.81L75.46 14.04L75.99 14.04L78.26 0.43L82.92 0.43L79.66 18L72.63 18L70.14 6.69L67.66 18ZM90.23 18.39L90.23 18.39Q87.50 18.39 86.12 17.00Q84.74 15.62 84.74 12.82L84.74 12.82Q84.74 10.86 85.44 9.76Q86.14 8.65 87.52 8.15Q88.90 7.64 90.90 7.53L90.90 7.53L95.17 7.15L95.17 6.10Q95.17 4.84 94.54 4.33Q93.91 3.82 92.68 3.82L92.68 3.82Q91.70 3.82 90.42 3.89Q89.15 3.96 87.90 4.07Q86.66 4.17 85.75 4.28L85.75 4.28L85.61 0.99Q86.52 0.78 87.80 0.55Q89.08 0.32 90.48 0.18Q91.88 0.04 93.07 0.04L93.07 0.04Q95.31 0.04 96.81 0.60Q98.32 1.16 99.09 2.44Q99.86 3.72 99.86 5.89L99.86 5.89L99.86 13.90Q99.93 14.39 100.38 14.66Q100.84 14.92 101.43 15.03L101.43 15.03L101.33 18.25Q100.77 18.25 100.22 18.26Q99.68 18.28 99.19 18.26Q98.70 18.25 98.32 18.18L98.32 18.18Q97.51 18.07 96.93 17.75Q96.36 17.44 96.01 17.09L96.01 17.09Q95.45 17.34 94.50 17.65Q93.56 17.96 92.45 18.18Q91.35 18.39 90.23 18.39ZM91.35 14.92L91.35 14.92Q92.02 14.92 92.75 14.78Q93.49 14.64 94.13 14.45Q94.78 14.25 95.17 14.08L95.17 14.08L95.17 10.05L91.60 10.37Q90.44 10.47 89.93 11.05Q89.43 11.63 89.43 12.68L89.43 12.68Q89.43 13.73 89.90 14.32Q90.37 14.92 91.35 14.92ZM108.61 18L103.95 18L103.95 0.43L108.61 0.43L108.61 2.49Q109.20 2.04 110.08 1.53Q110.95 1.02 111.98 0.59Q113.02 0.15 113.96 0.01L113.96 0.01L113.96 4.52Q113.05 4.66 112.04 5.00Q111.02 5.33 110.13 5.71Q109.24 6.10 108.61 6.41L108.61 6.41L108.61 18ZM129.78 18L115.68 18L115.68 14.04L123.62 4.56L115.68 4.56L115.68 0.43L129.75 0.43L129.75 4.24L121.73 13.87L129.78 13.87L129.78 18ZM146.30 18L132.20 18L132.20 14.04L140.14 4.56L132.20 4.56L132.20 0.43L146.27 0.43L146.27 4.24L138.25 13.87L146.30 13.87L146.30 18Z" fill="#21ca8f"></path></g>
        
      </svg>